<mxfile host="app.diagrams.net" modified="2023-01-12T09:40:45.255Z" agent="5.0 (Windows NT 10.0; Win64; x64) AppleWebKit/537.36 (KHTML, like Gecko) Chrome/108.0.0.0 Safari/537.36" version="20.8.3" etag="KSBojJlyCSNRlpGJbCje" type="github">
  <diagram id="Wh2YbvhPYmp-iynHIiTA" name="Page-1">
    <mxGraphModel dx="2126" dy="527" grid="1" gridSize="10" guides="1" tooltips="1" connect="1" arrows="1" fold="1" page="1" pageScale="1" pageWidth="850" pageHeight="1100" math="0" shadow="0">
      <root>
        <mxCell id="0" />
        <mxCell id="1" parent="0" />
        <mxCell id="kvwv-kiXTuDLXK8gH5w4-1" value="main()" style="ellipse;whiteSpace=wrap;html=1;aspect=fixed;" vertex="1" parent="1">
          <mxGeometry x="385" y="20" width="80" height="80" as="geometry" />
        </mxCell>
        <mxCell id="kvwv-kiXTuDLXK8gH5w4-2" value="output_packet()" style="ellipse;whiteSpace=wrap;html=1;aspect=fixed;" vertex="1" parent="1">
          <mxGeometry x="385" y="120" width="90" height="90" as="geometry" />
        </mxCell>
        <mxCell id="kvwv-kiXTuDLXK8gH5w4-3" value="" style="endArrow=none;html=1;rounded=0;entryX=0.5;entryY=1;entryDx=0;entryDy=0;exitX=0.5;exitY=0;exitDx=0;exitDy=0;" edge="1" parent="1" source="kvwv-kiXTuDLXK8gH5w4-2" target="kvwv-kiXTuDLXK8gH5w4-1">
          <mxGeometry width="50" height="50" relative="1" as="geometry">
            <mxPoint x="230" y="170" as="sourcePoint" />
            <mxPoint x="280" y="120" as="targetPoint" />
          </mxGeometry>
        </mxCell>
        <mxCell id="kvwv-kiXTuDLXK8gH5w4-5" value="check_file()" style="ellipse;whiteSpace=wrap;html=1;aspect=fixed;" vertex="1" parent="1">
          <mxGeometry x="100" y="190" width="80" height="80" as="geometry" />
        </mxCell>
        <mxCell id="kvwv-kiXTuDLXK8gH5w4-6" value="check_data()" style="ellipse;whiteSpace=wrap;html=1;aspect=fixed;" vertex="1" parent="1">
          <mxGeometry x="305" y="240" width="80" height="80" as="geometry" />
        </mxCell>
        <mxCell id="kvwv-kiXTuDLXK8gH5w4-7" value="convert_to_packet()" style="ellipse;whiteSpace=wrap;html=1;aspect=fixed;" vertex="1" parent="1">
          <mxGeometry x="740" y="200" width="120" height="120" as="geometry" />
        </mxCell>
        <mxCell id="kvwv-kiXTuDLXK8gH5w4-8" value="" style="endArrow=none;html=1;rounded=0;entryX=0;entryY=0.5;entryDx=0;entryDy=0;exitX=1;exitY=0;exitDx=0;exitDy=0;" edge="1" parent="1" source="kvwv-kiXTuDLXK8gH5w4-5" target="kvwv-kiXTuDLXK8gH5w4-2">
          <mxGeometry width="50" height="50" relative="1" as="geometry">
            <mxPoint x="220" y="230" as="sourcePoint" />
            <mxPoint x="270" y="180" as="targetPoint" />
          </mxGeometry>
        </mxCell>
        <mxCell id="kvwv-kiXTuDLXK8gH5w4-9" value="" style="endArrow=none;html=1;rounded=0;entryX=0;entryY=1;entryDx=0;entryDy=0;exitX=1;exitY=0;exitDx=0;exitDy=0;" edge="1" parent="1" source="kvwv-kiXTuDLXK8gH5w4-6" target="kvwv-kiXTuDLXK8gH5w4-2">
          <mxGeometry width="50" height="50" relative="1" as="geometry">
            <mxPoint x="340" y="250" as="sourcePoint" />
            <mxPoint x="390" y="200" as="targetPoint" />
          </mxGeometry>
        </mxCell>
        <mxCell id="kvwv-kiXTuDLXK8gH5w4-10" value="" style="endArrow=none;html=1;rounded=0;entryX=0.067;entryY=0.222;entryDx=0;entryDy=0;entryPerimeter=0;exitX=0.971;exitY=0.66;exitDx=0;exitDy=0;exitPerimeter=0;" edge="1" parent="1" source="kvwv-kiXTuDLXK8gH5w4-2" target="kvwv-kiXTuDLXK8gH5w4-7">
          <mxGeometry width="50" height="50" relative="1" as="geometry">
            <mxPoint x="470" y="170" as="sourcePoint" />
            <mxPoint x="560" y="190" as="targetPoint" />
          </mxGeometry>
        </mxCell>
        <mxCell id="kvwv-kiXTuDLXK8gH5w4-11" value="description_error()" style="ellipse;whiteSpace=wrap;html=1;aspect=fixed;" vertex="1" parent="1">
          <mxGeometry x="-90" y="290" width="110" height="110" as="geometry" />
        </mxCell>
        <mxCell id="kvwv-kiXTuDLXK8gH5w4-12" value="" style="endArrow=none;html=1;rounded=0;entryX=0.06;entryY=0.738;entryDx=0;entryDy=0;entryPerimeter=0;exitX=0.651;exitY=0.005;exitDx=0;exitDy=0;exitPerimeter=0;" edge="1" parent="1" source="kvwv-kiXTuDLXK8gH5w4-11" target="kvwv-kiXTuDLXK8gH5w4-5">
          <mxGeometry width="50" height="50" relative="1" as="geometry">
            <mxPoint x="-20" y="290" as="sourcePoint" />
            <mxPoint x="30" y="240" as="targetPoint" />
          </mxGeometry>
        </mxCell>
        <mxCell id="kvwv-kiXTuDLXK8gH5w4-13" value="check_format()" style="ellipse;whiteSpace=wrap;html=1;aspect=fixed;" vertex="1" parent="1">
          <mxGeometry x="170" y="320" width="80" height="80" as="geometry" />
        </mxCell>
        <mxCell id="kvwv-kiXTuDLXK8gH5w4-14" value="" style="endArrow=none;html=1;rounded=0;entryX=0.037;entryY=0.723;entryDx=0;entryDy=0;entryPerimeter=0;exitX=0.705;exitY=0.003;exitDx=0;exitDy=0;exitPerimeter=0;" edge="1" parent="1" source="kvwv-kiXTuDLXK8gH5w4-13" target="kvwv-kiXTuDLXK8gH5w4-6">
          <mxGeometry width="50" height="50" relative="1" as="geometry">
            <mxPoint x="190" y="360" as="sourcePoint" />
            <mxPoint x="300" y="300" as="targetPoint" />
          </mxGeometry>
        </mxCell>
        <mxCell id="kvwv-kiXTuDLXK8gH5w4-15" value="check_line()" style="ellipse;whiteSpace=wrap;html=1;aspect=fixed;" vertex="1" parent="1">
          <mxGeometry x="370" y="340" width="80" height="80" as="geometry" />
        </mxCell>
        <mxCell id="kvwv-kiXTuDLXK8gH5w4-16" value="" style="endArrow=none;html=1;rounded=0;entryX=0.617;entryY=1.023;entryDx=0;entryDy=0;entryPerimeter=0;exitX=0.347;exitY=0.033;exitDx=0;exitDy=0;exitPerimeter=0;" edge="1" parent="1" source="kvwv-kiXTuDLXK8gH5w4-15" target="kvwv-kiXTuDLXK8gH5w4-6">
          <mxGeometry width="50" height="50" relative="1" as="geometry">
            <mxPoint x="310" y="390" as="sourcePoint" />
            <mxPoint x="360" y="340" as="targetPoint" />
          </mxGeometry>
        </mxCell>
        <mxCell id="kvwv-kiXTuDLXK8gH5w4-17" value="description_error()" style="ellipse;whiteSpace=wrap;html=1;aspect=fixed;" vertex="1" parent="1">
          <mxGeometry x="60" y="430" width="110" height="110" as="geometry" />
        </mxCell>
        <mxCell id="kvwv-kiXTuDLXK8gH5w4-18" value="count_comma()" style="ellipse;whiteSpace=wrap;html=1;aspect=fixed;" vertex="1" parent="1">
          <mxGeometry x="240" y="440" width="90" height="90" as="geometry" />
        </mxCell>
        <mxCell id="kvwv-kiXTuDLXK8gH5w4-19" value="" style="endArrow=none;html=1;rounded=0;entryX=0.015;entryY=0.703;entryDx=0;entryDy=0;entryPerimeter=0;exitX=0.604;exitY=0.02;exitDx=0;exitDy=0;exitPerimeter=0;" edge="1" parent="1" source="kvwv-kiXTuDLXK8gH5w4-17" target="kvwv-kiXTuDLXK8gH5w4-13">
          <mxGeometry width="50" height="50" relative="1" as="geometry">
            <mxPoint x="70" y="440" as="sourcePoint" />
            <mxPoint x="120" y="390" as="targetPoint" />
          </mxGeometry>
        </mxCell>
        <mxCell id="kvwv-kiXTuDLXK8gH5w4-20" value="" style="endArrow=none;html=1;rounded=0;entryX=0.75;entryY=1;entryDx=0;entryDy=0;entryPerimeter=0;exitX=0.24;exitY=0.06;exitDx=0;exitDy=0;exitPerimeter=0;" edge="1" parent="1" source="kvwv-kiXTuDLXK8gH5w4-18" target="kvwv-kiXTuDLXK8gH5w4-13">
          <mxGeometry width="50" height="50" relative="1" as="geometry">
            <mxPoint x="220" y="480" as="sourcePoint" />
            <mxPoint x="270" y="430" as="targetPoint" />
          </mxGeometry>
        </mxCell>
        <mxCell id="kvwv-kiXTuDLXK8gH5w4-21" value="check_date()" style="ellipse;whiteSpace=wrap;html=1;aspect=fixed;" vertex="1" parent="1">
          <mxGeometry x="340" y="465" width="80" height="80" as="geometry" />
        </mxCell>
        <mxCell id="kvwv-kiXTuDLXK8gH5w4-22" value="check_day_time()" style="ellipse;whiteSpace=wrap;html=1;aspect=fixed;" vertex="1" parent="1">
          <mxGeometry x="465" y="450" width="100" height="100" as="geometry" />
        </mxCell>
        <mxCell id="kvwv-kiXTuDLXK8gH5w4-23" value="" style="endArrow=none;html=1;rounded=0;entryX=0;entryY=1;entryDx=0;entryDy=0;exitX=0.5;exitY=0;exitDx=0;exitDy=0;" edge="1" parent="1" source="kvwv-kiXTuDLXK8gH5w4-21" target="kvwv-kiXTuDLXK8gH5w4-15">
          <mxGeometry width="50" height="50" relative="1" as="geometry">
            <mxPoint x="400" y="480" as="sourcePoint" />
            <mxPoint x="450" y="430" as="targetPoint" />
          </mxGeometry>
        </mxCell>
        <mxCell id="kvwv-kiXTuDLXK8gH5w4-24" value="" style="endArrow=none;html=1;rounded=0;exitX=1.005;exitY=0.722;exitDx=0;exitDy=0;exitPerimeter=0;entryX=0.2;entryY=0.05;entryDx=0;entryDy=0;entryPerimeter=0;" edge="1" parent="1" source="kvwv-kiXTuDLXK8gH5w4-15" target="kvwv-kiXTuDLXK8gH5w4-22">
          <mxGeometry width="50" height="50" relative="1" as="geometry">
            <mxPoint x="470" y="450" as="sourcePoint" />
            <mxPoint x="520" y="400" as="targetPoint" />
          </mxGeometry>
        </mxCell>
        <mxCell id="kvwv-kiXTuDLXK8gH5w4-25" value="dec_to_hexa_convert()" style="ellipse;whiteSpace=wrap;html=1;aspect=fixed;" vertex="1" parent="1">
          <mxGeometry x="600" y="410" width="130" height="130" as="geometry" />
        </mxCell>
        <mxCell id="kvwv-kiXTuDLXK8gH5w4-26" value="float_to_hexa_convert()" style="ellipse;whiteSpace=wrap;html=1;aspect=fixed;" vertex="1" parent="1">
          <mxGeometry x="760" y="400" width="130" height="130" as="geometry" />
        </mxCell>
        <mxCell id="kvwv-kiXTuDLXK8gH5w4-27" value="get_time()" style="ellipse;whiteSpace=wrap;html=1;aspect=fixed;" vertex="1" parent="1">
          <mxGeometry x="930" y="425" width="80" height="80" as="geometry" />
        </mxCell>
        <mxCell id="kvwv-kiXTuDLXK8gH5w4-28" value="" style="endArrow=none;html=1;rounded=0;entryX=0.287;entryY=0.942;entryDx=0;entryDy=0;entryPerimeter=0;exitX=0.5;exitY=0;exitDx=0;exitDy=0;" edge="1" parent="1" source="kvwv-kiXTuDLXK8gH5w4-25" target="kvwv-kiXTuDLXK8gH5w4-7">
          <mxGeometry width="50" height="50" relative="1" as="geometry">
            <mxPoint x="600" y="420" as="sourcePoint" />
            <mxPoint x="650" y="370" as="targetPoint" />
          </mxGeometry>
        </mxCell>
        <mxCell id="kvwv-kiXTuDLXK8gH5w4-29" value="" style="endArrow=none;html=1;rounded=0;entryX=0.5;entryY=1;entryDx=0;entryDy=0;exitX=0.418;exitY=-0.008;exitDx=0;exitDy=0;exitPerimeter=0;" edge="1" parent="1" source="kvwv-kiXTuDLXK8gH5w4-26" target="kvwv-kiXTuDLXK8gH5w4-7">
          <mxGeometry width="50" height="50" relative="1" as="geometry">
            <mxPoint x="760" y="420" as="sourcePoint" />
            <mxPoint x="810" y="370" as="targetPoint" />
          </mxGeometry>
        </mxCell>
        <mxCell id="kvwv-kiXTuDLXK8gH5w4-30" value="" style="endArrow=none;html=1;rounded=0;exitX=1;exitY=1;exitDx=0;exitDy=0;entryX=0.25;entryY=0;entryDx=0;entryDy=0;entryPerimeter=0;" edge="1" parent="1" source="kvwv-kiXTuDLXK8gH5w4-7" target="kvwv-kiXTuDLXK8gH5w4-27">
          <mxGeometry width="50" height="50" relative="1" as="geometry">
            <mxPoint x="870" y="410" as="sourcePoint" />
            <mxPoint x="920" y="360" as="targetPoint" />
          </mxGeometry>
        </mxCell>
      </root>
    </mxGraphModel>
  </diagram>
</mxfile>
